<?xml version="1.0" standalone="no"?>
<!DOCTYPE svg PUBLIC "-//W3C//DTD SVG 20010904//EN"
 "http://www.w3.org/TR/2001/REC-SVG-20010904/DTD/svg10.dtd">
<svg version="1.0" xmlns="http://www.w3.org/2000/svg"
 width="1024.000000pt" height="1024.000000pt" viewBox="0 0 1024.000000 1024.000000"
 preserveAspectRatio="xMidYMid meet">
<metadata>
Created by potrace 1.11, written by Peter Selinger 2001-2013
</metadata>
<g transform="translate(0.000000,1024.000000) scale(0.100000,-0.100000)"
fill="#000000" stroke="none">
<path d="M4858 10235 c-2 -1 -50 -5 -108 -9 -58 -3 -116 -8 -130 -11 -14 -2
-50 -6 -80 -9 -60 -5 -74 -7 -264 -37 -72 -11 -133 -22 -136 -24 -3 -2 -26 -6
-50 -10 -94 -14 -412 -99 -582 -156 -546 -182 -1005 -424 -1473 -775 -82 -62
-161 -123 -175 -136 -14 -13 -55 -48 -90 -78 -243 -205 -529 -511 -739 -790
-39 -52 -75 -100 -79 -105 -5 -6 -40 -57 -79 -115 -252 -376 -484 -847 -611
-1240 -54 -169 -105 -346 -116 -400 -2 -14 -11 -54 -20 -90 -8 -36 -17 -76
-20 -90 -2 -14 -9 -47 -15 -75 -6 -27 -13 -66 -16 -85 -12 -77 -34 -238 -40
-285 -3 -27 -8 -63 -10 -80 -26 -192 -26 -857 0 -1016 2 -13 6 -49 9 -79 9
-87 41 -302 61 -405 18 -92 28 -137 55 -246 17 -68 35 -137 40 -154 32 -108
103 -333 110 -350 5 -11 35 -85 66 -165 118 -301 295 -638 489 -930 86 -130
286 -401 328 -445 7 -7 37 -41 67 -76 600 -696 1401 -1229 2280 -1516 162 -53
447 -129 550 -147 14 -3 50 -9 80 -15 157 -30 239 -42 370 -56 30 -4 71 -8 90
-10 226 -26 861 -26 997 -1 10 2 50 7 88 10 39 4 80 8 90 10 11 2 43 7 70 10
390 52 927 205 1295 369 170 76 197 89 220 101 14 8 72 38 130 68 267 140 589
351 806 528 17 14 53 43 80 65 208 171 546 511 675 680 13 17 26 32 29 35 13
11 142 182 212 280 67 95 228 345 228 355 0 2 19 36 43 77 48 81 177 337 221
438 208 476 343 971 401 1475 23 199 30 335 30 600 0 226 -8 428 -19 495 -3
14 -7 50 -10 80 -5 58 -28 218 -41 295 -66 391 -175 751 -356 1185 -39 94
-212 430 -284 550 -125 211 -304 465 -470 667 -173 209 -509 543 -681 675 -16
12 -31 25 -34 28 -16 20 -236 181 -355 262 -496 334 -1002 563 -1580 714 -121
31 -280 67 -350 78 -16 3 -70 12 -120 20 -104 18 -164 26 -220 31 -22 2 -65 6
-95 10 -30 3 -77 8 -105 11 -55 5 -651 14 -657 9z m-138 -1670 c130 -17 212
-36 318 -71 74 -25 151 -60 227 -104 40 -22 155 -100 165 -110 3 -3 21 -17 40
-30 19 -13 37 -27 40 -30 3 -3 25 -21 50 -40 25 -19 51 -40 58 -47 7 -7 18
-13 23 -13 27 0 7 -23 -163 -198 -90 -92 -91 -92 -112 -74 -26 23 -123 82
-135 82 -5 0 -11 4 -13 8 -5 12 -182 121 -259 159 -69 34 -206 74 -304 88 -86
13 -276 12 -367 -1 -165 -25 -352 -101 -507 -207 -42 -28 -121 -97 -176 -152
-158 -158 -267 -333 -343 -553 l-37 -107 -3 -767 -3 -767 618 0 c340 0 627 0
638 -1 20 0 20 -6 20 -192 l0 -193 -637 0 -638 0 0 -1475 0 -1475 -192 0 -193
0 0 2225 c0 1224 4 2275 8 2335 10 133 21 232 32 295 3 14 7 41 10 60 42 269
143 517 294 715 210 277 591 516 956 600 80 19 192 37 255 42 41 3 76 6 78 8
4 4 205 -4 252 -10z m1480 -2889 c123 -18 313 -66 385 -96 299 -126 490 -259
620 -432 28 -37 46 -54 51 -47 6 11 6 90 0 489 l-1 85 198 1 197 1 0 -1661 0
-1661 -172 2 c-95 1 -184 2 -198 2 l-26 1 1 283 c1 155 -1 286 -3 290 -2 4
-34 -19 -70 -51 -378 -330 -586 -446 -922 -512 -156 -31 -364 -32 -540 -4
-128 20 -330 90 -468 161 -188 98 -310 188 -467 347 -272 274 -380 507 -455
982 -6 38 -13 83 -16 99 -8 43 -7 232 0 285 33 228 105 421 228 610 288 445
782 773 1243 825 33 4 61 8 63 10 6 5 308 -3 352 -9z"/>
<path d="M5830 5280 c-19 -5 -48 -12 -65 -15 -16 -3 -37 -8 -45 -10 -8 -2 -26
-6 -40 -9 -41 -8 -71 -15 -88 -20 -9 -3 -32 -8 -50 -11 -70 -12 -260 -118
-362 -203 -119 -99 -242 -242 -317 -367 -53 -90 -122 -266 -138 -355 -3 -14
-9 -47 -14 -75 -10 -52 -8 -332 3 -375 3 -14 11 -49 17 -78 66 -321 287 -647
562 -831 271 -181 543 -235 862 -171 573 114 936 441 1078 970 42 154 53 329
31 478 -77 521 -502 935 -1078 1053 -113 23 -302 33 -356 19z"/>
</g>
</svg>
