<?xml version="1.0" encoding="iso-8859-1"?>
<!-- Generator: Adobe Illustrator 19.0.0, SVG Export Plug-In . SVG Version: 6.00 Build 0)  -->
<svg xmlns="http://www.w3.org/2000/svg" xmlns:xlink="http://www.w3.org/1999/xlink" version="1.1" id="Layer_1" x="0px" y="0px" viewBox="0 0 512 512" style="enable-background:new 0 0 512 512;" xml:space="preserve" width="512" height="512">
<g>
	<g>
		<g>
			<g>
				<path style="fill:#426175;" d="M282.314,376.089h-52.627c0,81.008-49.356,122.474-49.356,122.474h151.338      C331.669,498.563,282.314,457.098,282.314,376.089z"/>
				<path style="fill:#CDD6DF;" d="M342.027,504.5H169.973c-4.142,0-7.499-3.357-7.499-7.499v0      c0-13.198,10.699-23.898,23.898-23.898h139.256c13.198,0,23.898,10.699,23.898,23.898v0      C349.526,501.143,346.169,504.5,342.027,504.5z"/>
			</g>
			<g>
				<g>
					<g>
						<g>
							<g>
								<path style="fill:#426175;" d="M467.497,408.156H44.504c-9.844,0-17.824-7.98-17.824-17.824V76.966          c0-9.844,7.98-17.824,17.824-17.824h422.993c9.844,0,17.824,7.98,17.824,17.824v313.366          C485.321,400.176,477.341,408.156,467.497,408.156z"/>
								<path style="fill:#426175;" d="M467.497,408.156H44.504c-9.844,0-17.824-7.98-17.824-17.824V76.966          c0-9.844,7.98-17.824,17.824-17.824h422.993c9.844,0,17.824,7.98,17.824,17.824v313.366          C485.321,400.176,477.341,408.156,467.497,408.156z"/>
								<path style="fill:#2C4456;" d="M467.497,408.156c9.844,0,17.824-7.98,17.824-17.824V76.967          c0-9.844-7.98-17.824-17.824-17.824h-35.894v331.19c0,9.843-7.98,17.823-17.823,17.824H467.497z"/>
								<rect x="52.518" y="85.903" style="fill:#88DBFD;" width="406.965" height="243.153"/>
								<path style="fill:#CDD6DF;" d="M26.68,356.739v33.593c0,9.844,7.98,17.824,17.824,17.824h422.993          c9.844,0,17.824-7.98,17.824-17.824v-33.593H26.68z"/>
								<path style="fill:#ABB2BA;" d="M467.497,408.156c9.844,0,17.824-7.98,17.824-17.824v-33.593h-53.718v33.593          c0,9.843-7.979,17.823-17.822,17.824H467.497z"/>
							</g>
						</g>
					</g>
				</g>
				<path style="fill:#F2F2F2;" d="M395.177,329.056H116.824V17.791c0-5.683,4.607-10.291,10.291-10.291h257.772      c5.683,0,10.291,4.607,10.291,10.291V329.056z"/>
				<path style="fill:#CDD6DF;" d="M384.886,7.5h-53.718c5.683,0,10.291,4.607,10.291,10.291v311.265h53.718V17.791      C395.177,12.107,390.569,7.5,384.886,7.5z"/>
			</g>
		</g>
		<g>
			<g>
				<path style="fill:#FD715C;" d="M207.611,63.43c3.11,0,4.553,3.332,4.553,6.441c0,3.442-1.666,6.552-4.553,6.552h-16.214v63.634      c0,2.999-3.665,4.553-7.218,4.553c-3.665,0-7.219-1.555-7.219-4.553V76.423h-16.325c-2.887,0-4.553-2.998-4.553-6.552      c0-3.11,1.444-6.441,4.553-6.441H207.611z"/>
			</g>
		</g>
	</g>
	<g>
		<path d="M357.662,68.831H259c-4.142,0-7.5,3.358-7.5,7.5s3.358,7.5,7.5,7.5h98.662c4.143,0,7.5-3.358,7.5-7.5    S361.805,68.831,357.662,68.831z"/>
		<path d="M357.662,127.621H259c-4.142,0-7.5,3.358-7.5,7.5s3.358,7.5,7.5,7.5h98.662c4.143,0,7.5-3.358,7.5-7.5    S361.805,127.621,357.662,127.621z"/>
		<path d="M357.662,186.412H154.749c-4.142,0-7.5,3.358-7.5,7.5s3.358,7.5,7.5,7.5h202.913c4.143,0,7.5-3.358,7.5-7.5    S361.805,186.412,357.662,186.412z"/>
		<path d="M259,245.203H154.749c-4.142,0-7.5,3.358-7.5,7.5s3.358,7.5,7.5,7.5H259c4.143,0,7.5-3.358,7.5-7.5    S263.143,245.203,259,245.203z"/>
		<path d="M60.017,321.556V93.403h26.808c4.142,0,7.5-3.358,7.5-7.5s-3.358-7.5-7.5-7.5H52.517c-4.142,0-7.5,3.358-7.5,7.5v243.152    c0,4.142,3.358,7.5,7.5,7.5h406.965c4.143,0,7.5-3.358,7.5-7.5V85.903c0-4.142-3.357-7.5-7.5-7.5h-34.308    c-4.143,0-7.5,3.358-7.5,7.5s3.357,7.5,7.5,7.5h26.808v228.152h-49.306V17.791c0-9.81-7.981-17.791-17.791-17.791H127.115    c-9.81,0-17.791,7.981-17.791,17.791v303.765H60.017z M124.324,17.791c0-1.539,1.252-2.791,2.791-2.791h257.771    c1.539,0,2.791,1.252,2.791,2.791v303.765H124.324V17.791z"/>
		<path d="M467.496,51.643h-42.321c-4.143,0-7.5,3.358-7.5,7.5s3.357,7.5,7.5,7.5h42.321c5.692,0,10.324,4.631,10.324,10.324    v272.272H34.179V76.967c0-5.693,4.631-10.324,10.324-10.324h42.321c4.142,0,7.5-3.358,7.5-7.5s-3.358-7.5-7.5-7.5H44.504    c-13.964,0-25.324,11.36-25.324,25.324v313.365c0,13.964,11.36,25.324,25.324,25.324h173.35    c-4.052,17.945-10.875,34.696-20.349,49.947h-11.132c-17.313,0-31.398,14.085-31.398,31.398c0,8.271,6.729,14.999,14.999,14.999    h172.053c8.271,0,15-6.729,15-14.999c0-17.313-14.085-31.398-31.398-31.398h-11.132c-9.474-15.251-16.297-32.002-20.349-49.947    h173.35c13.964,0,25.324-11.36,25.324-25.324V76.967C492.821,63.003,481.46,51.643,467.496,51.643z M342.036,497    c0,0-0.003,0-0.01,0l-172.052,0.001c0-9.042,7.356-16.398,16.398-16.398h15.122c0.037,0,0.074,0.001,0.112,0.001    c0.021,0,0.043-0.001,0.064-0.001h108.661c0.021,0,0.043,0.001,0.064,0.001c0.037,0,0.074,0,0.112-0.001h15.122    C334.67,480.603,342.027,487.959,342.036,497z M297.121,465.603h-82.242c8.51-15.461,14.649-32.192,18.321-49.947h45.6    C282.472,433.411,288.61,450.142,297.121,465.603z M467.496,400.656H285.129c-0.08-0.001-0.16-0.001-0.241,0h-57.836    c-0.053,0-0.106-0.001-0.158,0H44.504c-5.693,0-10.324-4.631-10.324-10.324v-26.093h443.641v26.093    C477.821,396.025,473.189,400.656,467.496,400.656z"/>
	</g>
</g>















</svg>
